<svg width="1366" height="1655" viewBox="0 0 1366 1655" fill="none" xmlns="http://www.w3.org/2000/svg">
<g clip-path="url(#clip0_112_286)">
<rect width="1366" height="1655" fill="black"/>
<g opacity="0.2">
<path d="M-1353 774.097C-1289.07 749.065 -1002.9 592.06 -698.752 740.461C-318.567 925.961 -378.468 1587.91 419.856 1406.46" stroke="url(#paint0_linear_112_286)" stroke-width="0.987317"/>
<path d="M64.3847 273.3C128.315 248.269 414.485 91.2636 718.633 239.664C1098.82 425.165 1038.92 1087.11 1837.24 905.663" stroke="url(#paint1_linear_112_286)" stroke-width="0.987317"/>
<path d="M-1307.28 757.941C-1243.35 732.909 -957.177 575.904 -653.029 724.305C-272.844 909.806 -332.745 1571.76 465.579 1390.3" stroke="url(#paint2_linear_112_286)" stroke-width="0.987317"/>
<path d="M-1261.56 741.786C-1197.63 716.754 -911.455 559.749 -607.308 708.15C-227.123 893.651 -287.024 1555.6 511.3 1374.15" stroke="url(#paint3_linear_112_286)" stroke-width="0.987317"/>
<path d="M-1215.83 725.632C-1151.9 700.6 -865.734 543.595 -561.586 691.995C-181.401 877.496 -241.302 1539.45 557.022 1357.99" stroke="url(#paint4_linear_112_286)" stroke-width="0.987317"/>
<path d="M-1170.11 709.477C-1106.18 684.445 -820.011 527.44 -515.863 675.84C-135.678 861.341 -195.579 1523.29 602.745 1341.84" stroke="url(#paint5_linear_112_286)" stroke-width="0.987317"/>
<path d="M-1124.39 693.322C-1060.46 668.29 -774.289 511.285 -470.141 659.685C-89.9568 845.186 -149.858 1507.14 648.466 1325.68" stroke="url(#paint6_linear_112_286)" stroke-width="0.987317"/>
<path d="M-1078.67 677.167C-1014.74 652.135 -728.567 495.13 -424.419 643.531C-44.2341 829.031 -104.135 1490.98 694.189 1309.53" stroke="url(#paint7_linear_112_286)" stroke-width="0.987317"/>
<path d="M-1032.95 661.013C-969.015 635.981 -682.845 478.976 -378.697 627.377C1.48756 812.878 -58.4133 1474.83 739.911 1293.38" stroke="url(#paint8_linear_112_286)" stroke-width="0.987317"/>
<path d="M-987.223 644.858C-923.293 619.827 -637.122 462.822 -332.975 611.222C47.2102 796.723 -12.6906 1458.67 785.633 1277.22" stroke="url(#paint9_linear_112_286)" stroke-width="0.987317"/>
<path d="M-941.501 628.706C-877.571 603.674 -591.401 446.669 -287.253 595.069C92.9319 780.57 33.031 1442.52 831.355 1261.07" stroke="url(#paint10_linear_112_286)" stroke-width="0.987317"/>
<path d="M-895.779 612.551C-831.849 587.52 -545.679 430.515 -241.531 578.915C138.654 764.416 78.7527 1426.37 877.077 1244.91" stroke="url(#paint11_linear_112_286)" stroke-width="0.987317"/>
<path d="M-850.057 596.397C-786.127 571.365 -499.956 414.36 -195.808 562.76C184.376 748.261 124.475 1410.21 922.799 1228.76" stroke="url(#paint12_linear_112_286)" stroke-width="0.987317"/>
<path d="M-804.335 580.242C-740.405 555.21 -454.235 398.205 -150.087 546.606C230.098 732.106 170.197 1394.06 968.521 1212.6" stroke="url(#paint13_linear_112_286)" stroke-width="0.987317"/>
<path d="M-758.612 564.087C-694.682 539.055 -408.512 382.05 -104.364 530.451C275.821 715.951 215.92 1377.9 1014.24 1196.45" stroke="url(#paint14_linear_112_286)" stroke-width="0.987317"/>
<path d="M-712.891 547.931C-648.961 522.9 -362.79 365.895 -58.6425 514.295C321.542 699.796 261.641 1361.75 1059.97 1180.29" stroke="url(#paint15_linear_112_286)" stroke-width="0.987317"/>
<path d="M-667.169 531.777C-603.239 506.745 -317.069 349.74 -12.9208 498.141C367.264 683.642 307.363 1345.59 1105.69 1164.14" stroke="url(#paint16_linear_112_286)" stroke-width="0.987317"/>
<path d="M-621.446 515.622C-557.516 490.59 -271.346 333.585 32.8019 481.986C412.987 667.487 353.086 1329.44 1151.41 1147.98" stroke="url(#paint17_linear_112_286)" stroke-width="0.987317"/>
<path d="M-575.725 499.466C-511.795 474.435 -225.624 317.43 78.5235 465.83C458.708 651.331 398.807 1313.28 1197.13 1131.83" stroke="url(#paint18_linear_112_286)" stroke-width="0.987317"/>
<path d="M-530.002 483.312C-466.072 458.28 -179.902 301.275 124.246 449.676C504.431 635.176 444.53 1297.13 1242.85 1115.67" stroke="url(#paint19_linear_112_286)" stroke-width="0.987317"/>
<path d="M-484.28 467.158C-420.35 442.126 -134.18 285.121 169.968 433.522C550.153 619.023 490.252 1280.97 1288.58 1099.52" stroke="url(#paint20_linear_112_286)" stroke-width="0.987317"/>
<path d="M-438.558 451.003C-374.628 425.971 -88.4572 268.966 215.691 417.366C595.875 602.867 535.974 1264.82 1334.3 1083.37" stroke="url(#paint21_linear_112_286)" stroke-width="0.987317"/>
<path d="M-392.836 434.848C-328.906 409.816 -42.7356 252.811 261.412 401.212C641.597 586.712 581.696 1248.66 1380.02 1067.21" stroke="url(#paint22_linear_112_286)" stroke-width="0.987317"/>
<path d="M-347.114 418.693C-283.184 393.662 2.98612 236.657 307.134 385.057C687.319 570.558 627.418 1232.51 1425.74 1051.06" stroke="url(#paint23_linear_112_286)" stroke-width="0.987317"/>
<path d="M-301.392 402.539C-237.462 377.507 48.7088 220.502 352.857 368.903C733.041 554.403 673.14 1216.35 1471.46 1034.9" stroke="url(#paint24_linear_112_286)" stroke-width="0.987317"/>
<path d="M-255.67 386.383C-191.74 361.351 94.4305 204.346 398.578 352.747C778.763 538.248 718.862 1200.2 1517.19 1018.75" stroke="url(#paint25_linear_112_286)" stroke-width="0.987317"/>
<path d="M-209.947 370.229C-146.017 345.197 140.153 188.192 444.301 336.593C824.486 522.094 764.585 1184.04 1562.91 1002.59" stroke="url(#paint26_linear_112_286)" stroke-width="0.987317"/>
<path d="M-164.226 354.074C-100.296 329.043 185.875 172.038 490.023 320.438C870.207 505.939 810.306 1167.89 1608.63 986.437" stroke="url(#paint27_linear_112_286)" stroke-width="0.987317"/>
<path d="M-118.503 337.92C-54.5729 312.888 231.597 155.883 535.745 304.284C915.93 489.784 856.029 1151.73 1654.35 970.283" stroke="url(#paint28_linear_112_286)" stroke-width="0.987317"/>
<path d="M-72.7813 321.764C-8.85127 296.732 277.319 139.727 581.467 288.128C961.652 473.629 901.751 1135.58 1700.07 954.127" stroke="url(#paint29_linear_112_286)" stroke-width="0.987317"/>
<path d="M-27.0596 305.609C36.8704 280.578 323.041 123.573 627.189 271.973C1007.37 457.474 947.472 1119.42 1745.8 937.972" stroke="url(#paint30_linear_112_286)" stroke-width="0.987317"/>
<path d="M18.663 289.455C82.5931 264.423 368.763 107.418 672.911 255.819C1053.1 441.319 993.195 1103.27 1791.52 921.817" stroke="url(#paint31_linear_112_286)" stroke-width="0.987317"/>
</g>
</g>
<defs>
<linearGradient id="paint0_linear_112_286" x1="-373.355" y1="899.229" x2="-512.417" y2="1184.24" gradientUnits="userSpaceOnUse">
<stop stop-color="#A17316"/>
<stop offset="0.216366" stop-color="#B2800A"/>
<stop offset="0.461172" stop-color="#CA9400"/>
<stop offset="0.685144" stop-color="#E0A700"/>
<stop offset="1" stop-color="#F1B500"/>
</linearGradient>
<linearGradient id="paint1_linear_112_286" x1="1044.03" y1="398.433" x2="904.968" y2="683.44" gradientUnits="userSpaceOnUse">
<stop stop-color="#A17316"/>
<stop offset="0.216366" stop-color="#B2800A"/>
<stop offset="0.461172" stop-color="#CA9400"/>
<stop offset="0.685144" stop-color="#E0A700"/>
<stop offset="1" stop-color="#F1B500"/>
</linearGradient>
<linearGradient id="paint2_linear_112_286" x1="-327.632" y1="883.074" x2="-466.694" y2="1168.08" gradientUnits="userSpaceOnUse">
<stop stop-color="#A17316"/>
<stop offset="0.216366" stop-color="#B2800A"/>
<stop offset="0.461172" stop-color="#CA9400"/>
<stop offset="0.685144" stop-color="#E0A700"/>
<stop offset="1" stop-color="#F1B500"/>
</linearGradient>
<linearGradient id="paint3_linear_112_286" x1="-281.911" y1="866.918" x2="-420.972" y2="1151.93" gradientUnits="userSpaceOnUse">
<stop stop-color="#A17316"/>
<stop offset="0.216366" stop-color="#B2800A"/>
<stop offset="0.461172" stop-color="#CA9400"/>
<stop offset="0.685144" stop-color="#E0A700"/>
<stop offset="1" stop-color="#F1B500"/>
</linearGradient>
<linearGradient id="paint4_linear_112_286" x1="-236.189" y1="850.764" x2="-375.25" y2="1135.77" gradientUnits="userSpaceOnUse">
<stop stop-color="#A17316"/>
<stop offset="0.216366" stop-color="#B2800A"/>
<stop offset="0.461172" stop-color="#CA9400"/>
<stop offset="0.685144" stop-color="#E0A700"/>
<stop offset="1" stop-color="#F1B500"/>
</linearGradient>
<linearGradient id="paint5_linear_112_286" x1="-190.466" y1="834.609" x2="-329.528" y2="1119.62" gradientUnits="userSpaceOnUse">
<stop stop-color="#A17316"/>
<stop offset="0.216366" stop-color="#B2800A"/>
<stop offset="0.461172" stop-color="#CA9400"/>
<stop offset="0.685144" stop-color="#E0A700"/>
<stop offset="1" stop-color="#F1B500"/>
</linearGradient>
<linearGradient id="paint6_linear_112_286" x1="-144.745" y1="818.454" x2="-283.806" y2="1103.46" gradientUnits="userSpaceOnUse">
<stop stop-color="#A17316"/>
<stop offset="0.216366" stop-color="#B2800A"/>
<stop offset="0.461172" stop-color="#CA9400"/>
<stop offset="0.685144" stop-color="#E0A700"/>
<stop offset="1" stop-color="#F1B500"/>
</linearGradient>
<linearGradient id="paint7_linear_112_286" x1="-99.0219" y1="802.299" x2="-238.084" y2="1087.31" gradientUnits="userSpaceOnUse">
<stop stop-color="#A17316"/>
<stop offset="0.216366" stop-color="#B2800A"/>
<stop offset="0.461172" stop-color="#CA9400"/>
<stop offset="0.685144" stop-color="#E0A700"/>
<stop offset="1" stop-color="#F1B500"/>
</linearGradient>
<linearGradient id="paint8_linear_112_286" x1="-53.3002" y1="786.145" x2="-192.362" y2="1071.15" gradientUnits="userSpaceOnUse">
<stop stop-color="#A17316"/>
<stop offset="0.216366" stop-color="#B2800A"/>
<stop offset="0.461172" stop-color="#CA9400"/>
<stop offset="0.685144" stop-color="#E0A700"/>
<stop offset="1" stop-color="#F1B500"/>
</linearGradient>
<linearGradient id="paint9_linear_112_286" x1="-7.57756" y1="769.991" x2="-146.639" y2="1055" gradientUnits="userSpaceOnUse">
<stop stop-color="#A17316"/>
<stop offset="0.216366" stop-color="#B2800A"/>
<stop offset="0.461172" stop-color="#CA9400"/>
<stop offset="0.685144" stop-color="#E0A700"/>
<stop offset="1" stop-color="#F1B500"/>
</linearGradient>
<linearGradient id="paint10_linear_112_286" x1="38.1441" y1="753.838" x2="-100.917" y2="1038.85" gradientUnits="userSpaceOnUse">
<stop stop-color="#A17316"/>
<stop offset="0.216366" stop-color="#B2800A"/>
<stop offset="0.461172" stop-color="#CA9400"/>
<stop offset="0.685144" stop-color="#E0A700"/>
<stop offset="1" stop-color="#F1B500"/>
</linearGradient>
<linearGradient id="paint11_linear_112_286" x1="83.8658" y1="737.684" x2="-55.1958" y2="1022.69" gradientUnits="userSpaceOnUse">
<stop stop-color="#A17316"/>
<stop offset="0.216366" stop-color="#B2800A"/>
<stop offset="0.461172" stop-color="#CA9400"/>
<stop offset="0.685144" stop-color="#E0A700"/>
<stop offset="1" stop-color="#F1B500"/>
</linearGradient>
<linearGradient id="paint12_linear_112_286" x1="129.588" y1="721.529" x2="-9.47315" y2="1006.54" gradientUnits="userSpaceOnUse">
<stop stop-color="#A17316"/>
<stop offset="0.216366" stop-color="#B2800A"/>
<stop offset="0.461172" stop-color="#CA9400"/>
<stop offset="0.685144" stop-color="#E0A700"/>
<stop offset="1" stop-color="#F1B500"/>
</linearGradient>
<linearGradient id="paint13_linear_112_286" x1="175.31" y1="705.374" x2="36.2485" y2="990.382" gradientUnits="userSpaceOnUse">
<stop stop-color="#A17316"/>
<stop offset="0.216366" stop-color="#B2800A"/>
<stop offset="0.461172" stop-color="#CA9400"/>
<stop offset="0.685144" stop-color="#E0A700"/>
<stop offset="1" stop-color="#F1B500"/>
</linearGradient>
<linearGradient id="paint14_linear_112_286" x1="221.033" y1="689.219" x2="81.9712" y2="974.227" gradientUnits="userSpaceOnUse">
<stop stop-color="#A17316"/>
<stop offset="0.216366" stop-color="#B2800A"/>
<stop offset="0.461172" stop-color="#CA9400"/>
<stop offset="0.685144" stop-color="#E0A700"/>
<stop offset="1" stop-color="#F1B500"/>
</linearGradient>
<linearGradient id="paint15_linear_112_286" x1="266.754" y1="673.064" x2="127.693" y2="958.071" gradientUnits="userSpaceOnUse">
<stop stop-color="#A17316"/>
<stop offset="0.216366" stop-color="#B2800A"/>
<stop offset="0.461172" stop-color="#CA9400"/>
<stop offset="0.685144" stop-color="#E0A700"/>
<stop offset="1" stop-color="#F1B500"/>
</linearGradient>
<linearGradient id="paint16_linear_112_286" x1="312.476" y1="656.909" x2="173.415" y2="941.917" gradientUnits="userSpaceOnUse">
<stop stop-color="#A17316"/>
<stop offset="0.216366" stop-color="#B2800A"/>
<stop offset="0.461172" stop-color="#CA9400"/>
<stop offset="0.685144" stop-color="#E0A700"/>
<stop offset="1" stop-color="#F1B500"/>
</linearGradient>
<linearGradient id="paint17_linear_112_286" x1="358.199" y1="640.754" x2="219.137" y2="925.762" gradientUnits="userSpaceOnUse">
<stop stop-color="#A17316"/>
<stop offset="0.216366" stop-color="#B2800A"/>
<stop offset="0.461172" stop-color="#CA9400"/>
<stop offset="0.685144" stop-color="#E0A700"/>
<stop offset="1" stop-color="#F1B500"/>
</linearGradient>
<linearGradient id="paint18_linear_112_286" x1="403.92" y1="624.599" x2="264.859" y2="909.606" gradientUnits="userSpaceOnUse">
<stop stop-color="#A17316"/>
<stop offset="0.216366" stop-color="#B2800A"/>
<stop offset="0.461172" stop-color="#CA9400"/>
<stop offset="0.685144" stop-color="#E0A700"/>
<stop offset="1" stop-color="#F1B500"/>
</linearGradient>
<linearGradient id="paint19_linear_112_286" x1="449.643" y1="608.444" x2="310.582" y2="893.452" gradientUnits="userSpaceOnUse">
<stop stop-color="#A17316"/>
<stop offset="0.216366" stop-color="#B2800A"/>
<stop offset="0.461172" stop-color="#CA9400"/>
<stop offset="0.685144" stop-color="#E0A700"/>
<stop offset="1" stop-color="#F1B500"/>
</linearGradient>
<linearGradient id="paint20_linear_112_286" x1="495.365" y1="592.29" x2="356.303" y2="877.298" gradientUnits="userSpaceOnUse">
<stop stop-color="#A17316"/>
<stop offset="0.216366" stop-color="#B2800A"/>
<stop offset="0.461172" stop-color="#CA9400"/>
<stop offset="0.685144" stop-color="#E0A700"/>
<stop offset="1" stop-color="#F1B500"/>
</linearGradient>
<linearGradient id="paint21_linear_112_286" x1="541.087" y1="576.135" x2="402.026" y2="861.142" gradientUnits="userSpaceOnUse">
<stop stop-color="#A17316"/>
<stop offset="0.216366" stop-color="#B2800A"/>
<stop offset="0.461172" stop-color="#CA9400"/>
<stop offset="0.685144" stop-color="#E0A700"/>
<stop offset="1" stop-color="#F1B500"/>
</linearGradient>
<linearGradient id="paint22_linear_112_286" x1="586.809" y1="559.98" x2="447.748" y2="844.988" gradientUnits="userSpaceOnUse">
<stop stop-color="#A17316"/>
<stop offset="0.216366" stop-color="#B2800A"/>
<stop offset="0.461172" stop-color="#CA9400"/>
<stop offset="0.685144" stop-color="#E0A700"/>
<stop offset="1" stop-color="#F1B500"/>
</linearGradient>
<linearGradient id="paint23_linear_112_286" x1="632.531" y1="543.826" x2="493.469" y2="828.833" gradientUnits="userSpaceOnUse">
<stop stop-color="#A17316"/>
<stop offset="0.216366" stop-color="#B2800A"/>
<stop offset="0.461172" stop-color="#CA9400"/>
<stop offset="0.685144" stop-color="#E0A700"/>
<stop offset="1" stop-color="#F1B500"/>
</linearGradient>
<linearGradient id="paint24_linear_112_286" x1="678.253" y1="527.671" x2="539.192" y2="812.679" gradientUnits="userSpaceOnUse">
<stop stop-color="#A17316"/>
<stop offset="0.216366" stop-color="#B2800A"/>
<stop offset="0.461172" stop-color="#CA9400"/>
<stop offset="0.685144" stop-color="#E0A700"/>
<stop offset="1" stop-color="#F1B500"/>
</linearGradient>
<linearGradient id="paint25_linear_112_286" x1="723.975" y1="511.515" x2="584.914" y2="796.523" gradientUnits="userSpaceOnUse">
<stop stop-color="#A17316"/>
<stop offset="0.216366" stop-color="#B2800A"/>
<stop offset="0.461172" stop-color="#CA9400"/>
<stop offset="0.685144" stop-color="#E0A700"/>
<stop offset="1" stop-color="#F1B500"/>
</linearGradient>
<linearGradient id="paint26_linear_112_286" x1="769.698" y1="495.361" x2="630.636" y2="780.369" gradientUnits="userSpaceOnUse">
<stop stop-color="#A17316"/>
<stop offset="0.216366" stop-color="#B2800A"/>
<stop offset="0.461172" stop-color="#CA9400"/>
<stop offset="0.685144" stop-color="#E0A700"/>
<stop offset="1" stop-color="#F1B500"/>
</linearGradient>
<linearGradient id="paint27_linear_112_286" x1="815.42" y1="479.207" x2="676.358" y2="764.214" gradientUnits="userSpaceOnUse">
<stop stop-color="#A17316"/>
<stop offset="0.216366" stop-color="#B2800A"/>
<stop offset="0.461172" stop-color="#CA9400"/>
<stop offset="0.685144" stop-color="#E0A700"/>
<stop offset="1" stop-color="#F1B500"/>
</linearGradient>
<linearGradient id="paint28_linear_112_286" x1="861.142" y1="463.052" x2="722.081" y2="748.06" gradientUnits="userSpaceOnUse">
<stop stop-color="#A17316"/>
<stop offset="0.216366" stop-color="#B2800A"/>
<stop offset="0.461172" stop-color="#CA9400"/>
<stop offset="0.685144" stop-color="#E0A700"/>
<stop offset="1" stop-color="#F1B500"/>
</linearGradient>
<linearGradient id="paint29_linear_112_286" x1="906.864" y1="446.897" x2="767.802" y2="731.904" gradientUnits="userSpaceOnUse">
<stop stop-color="#A17316"/>
<stop offset="0.216366" stop-color="#B2800A"/>
<stop offset="0.461172" stop-color="#CA9400"/>
<stop offset="0.685144" stop-color="#E0A700"/>
<stop offset="1" stop-color="#F1B500"/>
</linearGradient>
<linearGradient id="paint30_linear_112_286" x1="952.586" y1="430.742" x2="813.524" y2="715.749" gradientUnits="userSpaceOnUse">
<stop stop-color="#A17316"/>
<stop offset="0.216366" stop-color="#B2800A"/>
<stop offset="0.461172" stop-color="#CA9400"/>
<stop offset="0.685144" stop-color="#E0A700"/>
<stop offset="1" stop-color="#F1B500"/>
</linearGradient>
<linearGradient id="paint31_linear_112_286" x1="998.308" y1="414.587" x2="859.247" y2="699.595" gradientUnits="userSpaceOnUse">
<stop stop-color="#A17316"/>
<stop offset="0.216366" stop-color="#B2800A"/>
<stop offset="0.461172" stop-color="#CA9400"/>
<stop offset="0.685144" stop-color="#E0A700"/>
<stop offset="1" stop-color="#F1B500"/>
</linearGradient>
<clipPath id="clip0_112_286">
<rect width="1366" height="1655" fill="white"/>
</clipPath>
</defs>
</svg>
