<svg width="19" height="15" viewBox="0 0 19 15" fill="none" xmlns="http://www.w3.org/2000/svg">
<path d="M18.9282 10.9806C18.7177 12.1399 18.0546 13.1683 17.085 13.8393C16.1153 14.5104 14.9184 14.7693 13.7577 14.559C11.3404 14.1211 9.74597 11.7162 9.93281 9.38149C10.1494 6.67508 11.8926 3.29951 15.8686 0.984839C16.2054 0.788819 16.5843 1.16924 16.3986 1.51151C15.9236 2.38647 15.3282 3.80029 14.969 5.76755C15.5824 5.82461 16.1773 6.00847 16.7157 6.30744C17.2542 6.6064 17.7245 7.01395 18.0969 7.50418C18.4692 7.99441 18.7354 8.55662 18.8785 9.1551C19.0216 9.75358 19.0385 10.3752 18.9282 10.9806Z" fill="white"/>
<path d="M9.01026 10.9806C8.79971 12.1399 8.13667 13.1683 7.167 13.8393C6.19733 14.5104 5.00046 14.7693 3.83969 14.559C1.42247 14.1211 -0.172001 11.7162 0.0148394 9.38149C0.231421 6.67508 1.97467 3.29951 5.95058 0.984839C6.28746 0.788819 6.66636 1.16924 6.48063 1.51151C6.00565 2.38647 5.41031 3.80029 5.05106 5.76755C5.66448 5.82461 6.25931 6.00847 6.79778 6.30744C7.33624 6.6064 7.80657 7.01395 8.17889 7.50418C8.55121 7.99441 8.81739 8.55662 8.96051 9.1551C9.10363 9.75358 9.12057 10.3752 9.01026 10.9806Z" fill="white"/>
</svg>
