<svg width="63" height="46" viewBox="0 0 63 46" fill="none" xmlns="http://www.w3.org/2000/svg">
<g opacity="0.4">
<path d="M0.729757 12.1913L0.729704 12.1916C0.376362 14.1306 0.430628 16.1218 0.889051 18.0388C1.34748 19.9557 2.20004 21.7565 3.39265 23.3268C4.58525 24.8971 6.09183 26.2026 7.81671 27.1603C9.5416 28.118 11.4471 28.7069 13.4121 28.8897L13.9558 28.9403L13.8577 29.4774C12.6567 36.0551 10.6639 40.7931 9.06508 43.7384C8.67395 44.4591 9.48131 45.1925 10.1316 44.8141C23.1842 37.2152 28.8625 26.1632 29.5666 17.3645C30.1683 9.84673 25.025 2.12924 17.2934 0.728532C13.5748 0.0549097 9.74055 0.884275 6.63427 3.03406C3.52801 5.18382 1.40418 8.47783 0.729757 12.1913Z" stroke="white"/>
<path d="M33.6155 12.1913L33.6155 12.1916C33.2621 14.1306 33.3164 16.1218 33.7748 18.0388C34.2332 19.9557 35.0858 21.7565 36.2784 23.3268C37.471 24.8971 38.9776 26.2026 40.7025 27.1603C42.4273 28.118 44.3328 28.7069 46.2979 28.8897L46.8415 28.9403L46.7434 29.4774C45.5422 36.0551 43.5497 40.7931 41.9508 43.7384C41.5597 44.4591 42.3669 45.1926 43.0174 44.814C56.07 37.2152 61.7483 26.1632 62.4524 17.3645C63.054 9.84673 57.9107 2.12924 50.1791 0.728532C46.4605 0.0549097 42.6263 0.884275 39.52 3.03406C36.4138 5.18382 34.2899 8.47783 33.6155 12.1913Z" stroke="white"/>
</g>
</svg>
