<svg width="21" height="21" viewBox="0 0 21 21" fill="none" xmlns="http://www.w3.org/2000/svg">
<path fill-rule="evenodd" clip-rule="evenodd" d="M18.9004 10.4999C18.9004 14.597 15.8957 17.9922 11.9696 18.6023C11.7301 18.6395 11.5204 18.4492 11.5204 18.2067V12.1399H13.1604C13.6132 12.1399 13.9804 11.7728 13.9804 11.3199C13.9804 10.8671 13.6132 10.4999 13.1604 10.4999H11.5204V8.85993C11.5204 8.40705 11.8875 8.03993 12.3404 8.03993H13.1604C13.6132 8.03993 13.9804 7.6728 13.9804 7.21993C13.9804 6.76705 13.6132 6.39993 13.1604 6.39993H12.3404C10.9817 6.39993 9.88035 7.50131 9.88035 8.85993V10.4999H9.06035C8.60748 10.4999 8.24035 10.8671 8.24035 11.3199C8.24035 11.7728 8.60748 12.1399 9.06035 12.1399H9.88035V18.2067C9.88035 18.4492 9.67063 18.6395 9.43106 18.6023C5.50505 17.9922 2.50035 14.597 2.50035 10.4999C2.50035 5.97119 6.17162 2.29993 10.7004 2.29993C15.2291 2.29993 18.9004 5.97119 18.9004 10.4999Z" fill="white"/>
</svg>
