<svg width="28" height="28" viewBox="0 0 28 28" fill="none" xmlns="http://www.w3.org/2000/svg">
<g clip-path="url(#clip0_1_530)">
<path d="M23.0234 22.2578C23.0234 21.9674 23.0234 8.91231 23.0234 9.07812C23.0234 4.09456 18.9836 0 14 0C9.01644 0 4.97656 4.09456 4.97656 9.07812V20.6172C4.97656 21.0702 5.34384 21.4375 5.79688 21.4375H7.4375C7.89053 21.4375 8.25781 21.0702 8.25781 20.6172V10.7188C8.25781 10.2656 7.89053 9.89844 7.4375 9.89844H6.61719V9.07812C6.61719 5.00068 9.92255 1.64062 14 1.64062C18.0774 1.64062 21.3828 5.00068 21.3828 9.07812V9.89844H20.5625C20.1091 9.89844 19.7422 10.2653 19.7422 10.7188V20.6172C19.7422 21.0706 20.1091 21.4375 20.5625 21.4375H21.3828V22.2578C21.3828 23.6148 20.2789 24.7188 18.9219 24.7188H17.9505C17.6107 23.766 16.7087 23.0781 15.6406 23.0781H14C12.643 23.0781 11.5391 24.182 11.5391 25.5391C11.5391 26.8961 12.643 28 14 28H15.6406C16.7087 28 17.6107 27.3121 17.9505 26.3594H18.9219C21.1834 26.3594 23.0234 24.5193 23.0234 22.2578Z" fill="white"/>
<path d="M25.0057 11.2794C24.8837 11.2789 24.7807 11.3099 24.6641 11.3221V20.0147C24.776 20.0262 24.8747 20.0564 24.9917 20.0564C27.2212 20.0564 28 17.8845 28 15.6406C28 13.4056 27.2267 11.2886 25.0057 11.2794Z" fill="white"/>
<path d="M3.33594 20.0147V11.3213C3.2194 11.3092 3.11626 11.278 2.9942 11.2784C0.775141 11.2872 0 13.404 0 15.6406C0 17.8907 0.78225 20.0564 3.0083 20.0564C3.12534 20.0564 3.22399 20.0262 3.33594 20.0147Z" fill="white"/>
</g>
<defs>
<clipPath id="clip0_1_530">
<rect width="28" height="28" fill="white"/>
</clipPath>
</defs>
</svg>
