<svg width="12" height="12" viewBox="0 0 12 12" fill="none" xmlns="http://www.w3.org/2000/svg">
<path d="M2.2 9.71253C2.03333 9.77919 1.875 9.76453 1.725 9.66853C1.575 9.57286 1.5 9.43336 1.5 9.25003V7.38753C1.5 7.27086 1.53333 7.16669 1.6 7.07503C1.66667 6.98336 1.75833 6.92503 1.875 6.90003L5.5 6.00003L1.875 5.10003C1.75833 5.07503 1.66667 5.01669 1.6 4.92503C1.53333 4.83336 1.5 4.72919 1.5 4.61253V2.75003C1.5 2.56669 1.575 2.42703 1.725 2.33103C1.875 2.23536 2.03333 2.22086 2.2 2.28753L9.9 5.53753C10.1083 5.62919 10.2125 5.78336 10.2125 6.00003C10.2125 6.21669 10.1083 6.37086 9.9 6.46253L2.2 9.71253Z" fill="url(#paint0_linear_1_519)"/>
<defs>
<linearGradient id="paint0_linear_1_519" x1="5.85625" y1="2.24646" x2="5.85625" y2="9.75351" gradientUnits="userSpaceOnUse">
<stop stop-color="#A17316"/>
<stop offset="0.216366" stop-color="#B2800A"/>
<stop offset="0.461172" stop-color="#CA9400"/>
<stop offset="0.685144" stop-color="#E0A700"/>
<stop offset="1" stop-color="#F1B500"/>
</linearGradient>
</defs>
</svg>
