<svg width="24" height="25" viewBox="0 0 24 25" fill="none" xmlns="http://www.w3.org/2000/svg">
<path d="M12 0.00233384C5.51461 -0.125541 0.148078 5.0174 0 11.5023C0.0169219 14.8034 1.47862 17.9316 3.99998 20.0623V23.5023C3.99998 23.7785 4.22386 24.0023 4.5 24.0023C4.5937 24.0023 4.68553 23.976 4.76498 23.9263L7.55198 22.1854C8.97192 22.7285 10.4797 23.0054 12 23.0023C18.4854 23.1302 23.8519 17.9873 24 11.5024C23.8519 5.0174 18.4854 -0.125541 12 0.00233384Z" fill="#2196F3"/>
<path d="M19.9001 8.20237C19.7513 8.00296 19.4785 7.94329 19.2601 8.06235L14.0601 10.8974L10.8251 8.12334C10.6267 7.95327 10.3309 7.96457 10.1461 8.14935L4.14612 14.1494C3.95145 14.3452 3.95238 14.6618 4.14827 14.8565C4.30488 15.0121 4.54502 15.0466 4.73913 14.9414L9.93912 12.1064L13.1771 14.8814C13.3755 15.0514 13.6714 15.0401 13.8561 14.8553L19.8561 8.85534C20.0309 8.67885 20.0497 8.40074 19.9001 8.20237Z" fill="#FAFAFA"/>
</svg>
