<svg width="17" height="15" viewBox="0 0 17 15" fill="none" xmlns="http://www.w3.org/2000/svg">
<path d="M16.2656 7.17842L16.0529 7.0457L13.3255 8.70155C13.3192 8.70787 13.3129 8.71419 13.3004 8.72051L8.71507 11.4634C7.55778 12.1523 6.06894 11.7984 5.34329 10.6608L2.60959 6.37577C2.15918 5.67424 2.34685 4.77048 2.94114 4.27751L6.10648 8.75211C6.71327 9.65588 7.9081 9.94028 8.85269 9.40308L10.4792 8.49299C11.2799 8.04426 11.4112 6.93825 10.7419 6.31257L10.5667 6.15457L9.16547 6.91929C8.22088 7.4565 7.02605 7.1721 6.41926 6.26833L4.51755 3.67079L6.3004 3.14622C7.34509 2.84286 8.46485 2.99454 9.39068 3.56334L12.0431 5.24448L13.0189 5.85752C13.6758 6.24937 14.4827 6.26833 15.1521 5.88913C15.9716 5.42776 15.9841 4.23959 15.1709 3.75927L9.70346 0.498118C8.87772 0.00515356 7.88933 -0.127568 6.9635 0.125235L2.80977 1.25652C2.00905 1.47773 1.65873 2.42573 2.12165 3.12094L2.53452 3.70239L1.12075 4.11319C0.126108 4.41023 -0.318041 5.62368 0.25122 6.51481L4.93042 13.8461C5.65607 14.9837 7.14491 15.3376 8.3022 14.6487L16.2281 9.90236C17.2415 9.29563 17.2602 7.79146 16.2656 7.17842ZM4.73024 1.16804L6.91345 0.573959C7.83928 0.321156 8.82141 0.453878 9.64716 0.946842L13.2066 3.07038C13.8322 3.44326 13.8322 4.35335 13.2066 4.72624C12.9001 4.90952 12.5185 4.9032 12.2182 4.71359L10.4166 3.58231L9.45949 2.99454C8.53366 2.42573 7.4139 2.27405 6.36921 2.57742L4.186 3.22206L4.04838 3.03246C3.57921 2.33725 3.92952 1.38293 4.73024 1.16804Z" fill="white"/>
</svg>
