<svg width="24" height="24" viewBox="0 0 24 24" fill="none" xmlns="http://www.w3.org/2000/svg">
<path d="M10.744 13.6711L8.71752 11.7106C8.54671 11.5454 8.33909 11.4648 8.09468 11.4688C7.85027 11.4729 7.63793 11.5681 7.45766 11.7544C7.29241 11.9252 7.21193 12.1405 7.21624 12.4002C7.22054 12.6598 7.3081 12.8723 7.47891 13.0376L10.1343 15.6064C10.3051 15.7717 10.5204 15.8522 10.7801 15.8479C11.0398 15.8435 11.2522 15.756 11.4175 15.5852L16.5327 10.2976C16.6979 10.1268 16.7785 9.91922 16.7745 9.67481C16.7704 9.4304 16.6752 9.21805 16.4889 9.03778C16.3181 8.87253 16.1028 8.79206 15.8431 8.79636C15.5835 8.80066 15.371 8.88822 15.2057 9.05904L10.744 13.6711ZM12.1517 21.1654C10.8838 21.1864 9.6883 20.9654 8.5652 20.5024C7.44211 20.04 6.46129 19.4032 5.62274 18.592C4.78418 17.7808 4.11523 16.8216 3.61588 15.7144C3.11592 14.6073 2.85544 13.4197 2.83444 12.1519C2.81344 10.884 3.03445 9.68849 3.49746 8.56539C3.95987 7.4423 4.59668 6.46148 5.40791 5.62292C6.21913 4.78437 7.17832 4.11512 8.28547 3.61516C9.39263 3.11581 10.5801 2.85563 11.848 2.83463C13.1159 2.81363 14.3114 3.03433 15.4345 3.49674C16.5576 3.95975 17.5384 4.59687 18.377 5.4081C19.2155 6.21932 19.8845 7.17851 20.3838 8.28567C20.8838 9.39282 21.1443 10.5803 21.1653 11.8482C21.1863 13.1161 20.9653 14.3116 20.5022 15.4347C20.0398 16.5578 19.403 17.5386 18.5918 18.3772C17.7806 19.2157 16.8214 19.8847 15.7142 20.384C14.6071 20.884 13.4196 21.1444 12.1517 21.1654Z" fill="white"/>
</svg>
