<svg width="18" height="18" viewBox="0 0 18 18" fill="none" xmlns="http://www.w3.org/2000/svg">
<path fill-rule="evenodd" clip-rule="evenodd" d="M1.44743 5.89443C0.953454 6.14142 0.352781 5.94119 0.105792 5.44721C-0.141197 4.95324 0.059027 4.35256 0.553005 4.10557L8.55301 0.105573C8.83453 -0.0351909 9.1659 -0.0351909 9.44743 0.105573L17.4474 4.10557C17.9414 4.35256 18.1416 4.95324 17.8946 5.44721C17.6477 5.94119 17.047 6.14142 16.553 5.89443L9.00022 2.11803L1.44743 5.89443ZM8.31851 4.16494C8.74661 3.94661 9.25339 3.94661 9.68149 4.16494L15.1815 6.96994C15.6838 7.22612 16 7.74234 16 8.3062V14.9999C16 16.6568 14.6569 17.9999 13 17.9999H12.1395C11.5102 17.9999 11 17.4897 11 16.8604V13.9999C11 12.8954 10.1046 11.9999 9 11.9999C7.89543 11.9999 7 12.8954 7 13.9999V16.8604C7 17.4897 6.48981 17.9999 5.86047 17.9999H5C3.34315 17.9999 2 16.6568 2 14.9999V8.3062C2 7.74234 2.31621 7.22611 2.81851 6.96994L8.31851 4.16494Z" fill="url(#paint0_linear_1_1361)"/>
<defs>
<linearGradient id="paint0_linear_1_1361" x1="9.00021" y1="0" x2="9.00021" y2="17.9999" gradientUnits="userSpaceOnUse">
<stop stop-color="#A17316"/>
<stop offset="0.216366" stop-color="#B2800A"/>
<stop offset="0.461172" stop-color="#CA9400"/>
<stop offset="0.685144" stop-color="#E0A700"/>
<stop offset="1" stop-color="#F1B500"/>
</linearGradient>
</defs>
</svg>
