<svg width="18" height="18" viewBox="0 0 18 18" fill="none" xmlns="http://www.w3.org/2000/svg">
<path fill-rule="evenodd" clip-rule="evenodd" d="M14.8735 0V2.47341L17.9998 4.61908V6.51724H8.68945V4.62087L11.7815 2.4752V0H14.8735ZM7.44828 12.7242H0V8.6897H7.44828V12.7242ZM5.85455 9.77192H1.62901V10.789H5.85455V9.77192ZM7.44828 18.0001H0V13.9656H7.44828V18.0001ZM5.85455 15.0103H1.62901V16.0106H5.85455V15.0103ZM8.68945 18H17.9998V8.6897H8.68945V18ZM14.8735 9.79042H15.9041V10.8504H14.8735V9.79042ZM12.8121 9.79042H13.8428V10.8504H12.8121V9.79042ZM10.7508 9.79042H11.7815V10.8504H10.7508V9.79042ZM10.7508 11.7759H15.9041V15.9311H10.7508V11.7759Z" fill="white"/>
</svg>
