<svg width="13" height="11" viewBox="0 0 13 11" fill="none" xmlns="http://www.w3.org/2000/svg">
<path d="M6.5 11C6.31493 11 6.1365 10.9362 5.99744 10.8204C5.47227 10.3836 4.96595 9.97322 4.51923 9.61118L4.51695 9.60929C3.20725 8.5478 2.07628 7.6311 1.28937 6.72808C0.409721 5.71856 0 4.7614 0 3.71575C0 2.69982 0.36628 1.76255 1.0313 1.07649C1.70425 0.382319 2.62763 0 3.63165 0C4.38206 0 5.0693 0.225637 5.67421 0.670591C5.97949 0.895191 6.25621 1.17007 6.5 1.4907C6.74389 1.17007 7.02051 0.895191 7.32589 0.670591C7.9308 0.225637 8.61803 0 9.36845 0C10.3724 0 11.2959 0.382319 11.9688 1.07649C12.6338 1.76255 13 2.69982 13 3.71575C13 4.7614 12.5904 5.71856 11.7107 6.72799C10.9238 7.6311 9.79295 8.5477 8.48344 9.60911C8.03593 9.97171 7.52882 10.3828 7.00246 10.8206C6.8635 10.9362 6.68497 11 6.5 11Z" fill="#B4B4B4"/>
</svg>
