<svg width="19" height="19" viewBox="0 0 19 19" fill="none" xmlns="http://www.w3.org/2000/svg">
<path d="M14.25 18.2083H4.74996C4.54 18.2083 4.33863 18.1249 4.19017 17.9764C4.0417 17.828 3.95829 17.6266 3.95829 17.4166C3.95829 17.2067 4.0417 17.0053 4.19017 16.8568C4.33863 16.7084 4.54 16.625 4.74996 16.625H14.25C14.4599 16.625 14.6613 16.7084 14.8098 16.8568C14.9582 17.0053 15.0416 17.2067 15.0416 17.4166C15.0416 17.6266 14.9582 17.828 14.8098 17.9764C14.6613 18.1249 14.4599 18.2083 14.25 18.2083ZM18.2083 4.74996V11.0833C18.2083 11.6031 18.1059 12.1178 17.907 12.5981C17.7081 13.0783 17.4165 13.5147 17.0489 13.8823C16.6814 14.2498 16.245 14.5414 15.7647 14.7403C15.2845 14.9392 14.7698 15.0416 14.25 15.0416H4.74996C4.23014 15.0416 3.71542 14.9392 3.23517 14.7403C2.75492 14.5414 2.31856 14.2498 1.95099 13.8823C1.20866 13.1399 0.791626 12.1331 0.791626 11.0833V4.74996C0.791626 3.70014 1.20866 2.69333 1.95099 1.95099C2.69333 1.20866 3.70014 0.791626 4.74996 0.791626H14.25C14.7698 0.791626 15.2845 0.894011 15.7647 1.09294C16.245 1.29186 16.6814 1.58343 17.0489 1.95099C17.4165 2.31856 17.7081 2.75492 17.907 3.23517C18.1059 3.71542 18.2083 4.23014 18.2083 4.74996ZM3.95829 6.33329C3.95829 6.54326 4.0417 6.74462 4.19017 6.89309C4.33863 7.04155 4.54 7.12496 4.74996 7.12496H9.49996C9.70992 7.12496 9.91129 7.04155 10.0598 6.89309C10.2082 6.74462 10.2916 6.54326 10.2916 6.33329C10.2916 6.12333 10.2082 5.92197 10.0598 5.7735C9.91129 5.62503 9.70992 5.54163 9.49996 5.54163H4.74996C4.54 5.54163 4.33863 5.62503 4.19017 5.7735C4.0417 5.92197 3.95829 6.12333 3.95829 6.33329ZM15.0416 9.49996C15.0416 9.29 14.9582 9.08863 14.8098 8.94017C14.6613 8.7917 14.4599 8.70829 14.25 8.70829H4.74996C4.54 8.70829 4.33863 8.7917 4.19017 8.94017C4.0417 9.08863 3.95829 9.29 3.95829 9.49996C3.95829 9.70992 4.0417 9.91129 4.19017 10.0598C4.33863 10.2082 4.54 10.2916 4.74996 10.2916H14.25C14.4599 10.2916 14.6613 10.2082 14.8098 10.0598C14.9582 9.91129 15.0416 9.70992 15.0416 9.49996Z" fill="url(#paint0_linear_1_219)"/>
<defs>
<linearGradient id="paint0_linear_1_219" x1="9.49996" y1="0.791626" x2="9.49996" y2="18.2083" gradientUnits="userSpaceOnUse">
<stop stop-color="#A17316"/>
<stop offset="0.216366" stop-color="#B2800A"/>
<stop offset="0.461172" stop-color="#CA9400"/>
<stop offset="0.685144" stop-color="#E0A700"/>
<stop offset="1" stop-color="#F1B500"/>
</linearGradient>
</defs>
</svg>
