<svg width="16" height="13" viewBox="0 0 16 13" fill="none" xmlns="http://www.w3.org/2000/svg">
<path d="M1.71436 8.82141H14.2858V10.6786H1.71436V8.82141Z" fill="white"/>
<path d="M3.42871 6.49988H12.5716V8.35702H3.42871V6.49988Z" fill="white"/>
<path d="M5.14307 4.64282H10.8574V6.03568H5.14307V4.64282Z" fill="white"/>
<path d="M0 11.1428H16V13H0V11.1428Z" fill="white"/>
<path d="M5.89509 0.0240043C5.66267 -0.0394723 5.40486 0.0258179 5.25725 0.18587L0.114397 5.7573C0.0401785 5.83755 0 5.93503 0 6.03569V10.6785H1.14286V6.1903L1.71429 5.57126V8.35712H2.85714V4.33321L3.42857 3.7142V6.03569H4.57143V2.47616L5.14286 1.85712V4.17855H6.28571V0.46426C6.28571 0.264308 6.12835 0.0870274 5.89509 0.0240043Z" fill="white"/>
<path d="M10.105 0.0240043C10.3374 -0.0394723 10.5952 0.0258179 10.7428 0.18587L15.8857 5.7573C15.9599 5.83755 16.0001 5.93503 16.0001 6.03569V10.6785H14.8572V6.1903L14.2858 5.57126V8.35712H13.1429V4.33321L12.5715 3.7142V6.03569H11.4286V2.47616L10.8572 1.85712V4.17855H9.71436V0.46426C9.71436 0.264308 9.87172 0.0870274 10.105 0.0240043Z" fill="white"/>
</svg>
