<svg width="15" height="12" viewBox="0 0 15 12" fill="none" xmlns="http://www.w3.org/2000/svg">
<path d="M13.8261 3.64322L10.5858 0.402929C10.3185 0.135568 10.0473 0 9.77982 0C9.41259 0 8.9838 0.279299 8.9838 1.06648V2.16962C6.62963 2.27222 4.43116 3.23769 2.75436 4.91441C0.978359 6.6903 0.000167747 9.05149 0 11.5631C0 11.7435 0.11541 11.9038 0.286569 11.9609C0.330267 11.9754 0.375 11.9825 0.419313 11.9825C0.548674 11.9825 0.673898 11.9224 0.75464 11.815C2.73459 9.17948 5.71547 7.62197 8.9838 7.49901V8.58518C8.9838 9.3723 9.41259 9.65166 9.77979 9.65166H9.77987C10.0473 9.65166 10.3185 9.51609 10.5858 9.24876L13.8261 6.00841C14.141 5.69357 14.3145 5.27359 14.3145 4.82582C14.3145 4.37813 14.141 3.95811 13.8261 3.64322Z" fill="#B4B4B4"/>
</svg>
