<svg width="17" height="17" viewBox="0 0 17 17" fill="none" xmlns="http://www.w3.org/2000/svg">
<path d="M0 16.9999H7.03448V13.1896H0V16.9999ZM1.53851 14.1763H5.5293V15.121H1.53851V14.1763Z" fill="white"/>
<path d="M0 12.0173H7.03448V8.20691H0V12.0173ZM1.53851 9.22901H5.5293V10.1896H1.53851V9.22901Z" fill="white"/>
<path d="M8.20679 17H16.9999V8.20691H8.20679V17ZM14.0472 9.24648H15.0206V10.2476H14.0472V9.24648ZM12.1004 9.24648H13.0738V10.2476H12.1004V9.24648ZM10.1536 9.24648H11.127V10.2476H10.1536V9.24648ZM10.1536 11.1217H15.0206V15.046H10.1536V11.1217Z" fill="white"/>
<path d="M14.0472 2.336V0H11.127V2.33768L8.20679 4.36416V6.15517H16.9999V4.36247L14.0472 2.336Z" fill="white"/>
</svg>
