<svg width="14" height="16" viewBox="0 0 14 16" fill="none" xmlns="http://www.w3.org/2000/svg">
<path d="M3.625 8.875V4.75C3.625 4.45163 3.74353 4.16548 3.9545 3.9545C4.16548 3.74353 4.45163 3.625 4.75 3.625C5.04837 3.625 5.33452 3.74353 5.5455 3.9545C5.75647 4.16548 5.875 4.45163 5.875 4.75V8.875" stroke="white" stroke-linecap="round" stroke-linejoin="round"/>
<path d="M12.625 8.5V10.9375C12.625 13.3191 10.6941 15.25 8.3125 15.25H7.9375C5.55588 15.25 3.625 13.3191 3.625 10.9375V8.5" stroke="white" stroke-linecap="round" stroke-linejoin="round"/>
<path d="M5.875 10V8.125C5.875 7.82663 5.99353 7.54048 6.2045 7.3295C6.41548 7.11853 6.70163 7 7 7C7.29837 7 7.58452 7.11853 7.7955 7.3295C8.00647 7.54048 8.125 7.82663 8.125 8.125M8.125 8.125V10M8.125 8.125C8.125 7.82663 8.24353 7.54048 8.4545 7.3295C8.66548 7.11853 8.95163 7 9.25 7C9.54837 7 9.83452 7.11853 10.0455 7.3295C10.2565 7.54048 10.375 7.82663 10.375 8.125M10.375 8.125V10M10.375 8.125C10.375 7.82663 10.4935 7.54048 10.7045 7.3295C10.9155 7.11853 11.2016 7 11.5 7C11.7984 7 12.0845 7.11853 12.2955 7.3295C12.5065 7.54048 12.625 7.82663 12.625 8.125V10" stroke="white" stroke-linecap="round" stroke-linejoin="round"/>
<path d="M8.5 4.75C8.50088 3.94727 8.2433 3.16558 7.76538 2.52063C7.41698 2.04871 6.9626 1.66523 6.43884 1.4011C5.91508 1.13697 5.33659 0.999584 4.75 1C4.16335 0.999525 3.58479 1.13689 3.06096 1.40102C2.53713 1.66515 2.08268 2.04865 1.73425 2.52063C1.25649 3.16564 0.99904 3.94732 1 4.75" stroke="white" stroke-linecap="round"/>
</svg>
