<svg width="28" height="28" viewBox="0 0 28 28" fill="none" xmlns="http://www.w3.org/2000/svg">
<g clip-path="url(#clip0_478_15)">
<path d="M14 27.5C21.4558 27.5 27.5 21.4558 27.5 14C27.5 6.54416 21.4558 0.5 14 0.5C6.54416 0.5 0.5 6.54416 0.5 14C0.5 21.4558 6.54416 27.5 14 27.5Z" stroke="url(#paint0_linear_478_15)"/>
<path d="M11.3128 20.3577L11.3126 20.3575L9.84901 18.7625C9.84891 18.7624 9.84882 18.7623 9.84873 18.7622C9.73674 18.6395 9.64872 18.4928 9.58912 18.3328C9.64286 18.4582 9.71739 18.5749 9.81115 18.6772L11.248 20.2445L11.4446 20.4589C11.3983 20.4357 11.3537 20.4023 11.3128 20.3577ZM12.0813 12.4251C11.1887 13.3987 10.4876 14.5218 10.0279 15.7033C10.4896 14.4943 11.2015 13.3382 12.1188 12.3357C13.5166 10.8127 15.2293 9.82058 16.9245 9.51612L16.9245 9.51614L16.9282 9.51544C16.9839 9.50501 17.0396 9.5 17.1001 9.5C17.3843 9.5 17.6736 9.62604 17.8893 9.86132L19.3523 11.4571C19.3917 11.5001 19.4245 11.5499 19.449 11.6051L19.3662 11.5148L17.9293 9.94745L17.9277 9.94575C17.6736 9.67113 17.2968 9.52489 16.911 9.59531C15.1636 9.91054 13.4544 10.9274 12.0813 12.4251ZM19.3663 12.1904L19.4481 12.1011C19.4235 12.1562 19.391 12.2059 19.3524 12.2481C19.3524 12.2481 19.3523 12.2481 19.3523 12.2482L17.7743 13.965L17.7742 13.965L17.7716 13.9679C17.7349 14.0085 17.6939 14.04 17.6513 14.0627L17.8428 13.8537L19.3663 12.1904ZM17.1053 13.8535L17.3002 14.0664C17.2541 14.0433 17.2097 14.0099 17.169 13.9655C17.169 13.9655 17.1689 13.9655 17.1689 13.9655L15.9371 12.6203L15.6882 12.3485L15.3549 12.5059C14.6405 12.8431 13.9981 13.3189 13.4506 13.9191C12.9039 14.5136 12.4685 15.2144 12.1661 15.983L12.1611 15.9958C12.4712 15.1854 12.9228 14.4505 13.4895 13.8322C14.113 13.1518 14.8607 12.629 15.68 12.2962L17.1053 13.8535ZM12.0478 16.3133L12.0587 16.2811L12.2626 16.5038L13.4946 17.8491L13.4948 17.8493C13.5335 17.8915 13.5657 17.9402 13.5901 17.9942L13.5085 17.9053L12.0478 16.3133ZM13.5088 18.5811L13.5918 18.4904C13.5672 18.5466 13.5343 18.5972 13.495 18.6401C13.4949 18.6402 13.4949 18.6403 13.4948 18.6404L11.918 20.3573L11.9164 20.3591C11.8774 20.4019 11.8347 20.4344 11.7902 20.4573L11.9853 20.2444L13.5088 18.5811Z" fill="url(#paint1_linear_478_15)" stroke="url(#paint2_linear_478_15)"/>
</g>
<defs>
<linearGradient id="paint0_linear_478_15" x1="14" y1="-1.35214e-08" x2="14" y2="28" gradientUnits="userSpaceOnUse">
<stop stop-color="#A17316"/>
<stop offset="0.216366" stop-color="#B2800A"/>
<stop offset="0.461172" stop-color="#CA9400"/>
<stop offset="0.685144" stop-color="#E0A700"/>
<stop offset="1" stop-color="#F1B500"/>
</linearGradient>
<linearGradient id="paint1_linear_478_15" x1="20" y1="15.0033" x2="8.76765" y2="15.0034" gradientUnits="userSpaceOnUse">
<stop stop-color="#E4494D"/>
<stop offset="0.484375" stop-color="#5D3E91"/>
<stop offset="1" stop-color="#00367F"/>
</linearGradient>
<linearGradient id="paint2_linear_478_15" x1="14.5" y1="21" x2="14.5" y2="9" gradientUnits="userSpaceOnUse">
<stop stop-color="#A17316"/>
<stop offset="0.216366" stop-color="#B2800A"/>
<stop offset="0.461172" stop-color="#CA9400"/>
<stop offset="0.685144" stop-color="#E0A700"/>
<stop offset="1" stop-color="#F1B500"/>
</linearGradient>
<clipPath id="clip0_478_15">
<rect width="28" height="28" fill="white"/>
</clipPath>
</defs>
</svg>
