<svg width="29" height="29" viewBox="0 0 29 29" fill="none" xmlns="http://www.w3.org/2000/svg">
<path fill-rule="evenodd" clip-rule="evenodd" d="M19.4711 0.414632C19.2036 0.0575938 18.7363 -0.0880536 18.315 0.0535479C17.8922 0.194138 17.607 0.589611 17.607 1.03566V9.32137H19.6784V4.1428L20.7142 5.52373V13.4642H22.7856V8.28553L23.8213 9.66639V18.6428H25.8927V12.4282L26.9284 13.8091V23.8214H28.9999V13.4642C28.9999 13.2397 28.927 13.0222 28.7925 12.8432L19.4711 0.414632ZM10.6848 0.0537763C10.2636 -0.0878252 9.7963 0.0578222 9.52877 0.41486L0.207345 12.8434C0.0728235 13.0225 0 13.2399 0 13.4645V23.8216H2.07143V13.8094L3.10714 12.4284V18.643H5.17857V9.66662L6.21428 8.28575V13.4645H8.28571V5.52396L9.32143 4.14303V9.3216H11.3929V1.03588C11.3929 0.589839 11.1076 0.194366 10.6848 0.0537763ZM9.32104 10.3572H19.6782V13.4644H9.32104V10.3572ZM22.7855 14.5H6.21403V18.6429H22.7855V14.5ZM25.8927 19.6787H3.10702V23.8216H25.8927V19.6787ZM29 24.8572H8.61387e-06V29.0001H29V24.8572Z" fill="url(#paint0_linear_1_1192)"/>
<defs>
<linearGradient id="paint0_linear_1_1192" x1="14.5" y1="0" x2="14.5" y2="29" gradientUnits="userSpaceOnUse">
<stop stop-color="#A17316"/>
<stop offset="0.216366" stop-color="#B2800A"/>
<stop offset="0.461172" stop-color="#CA9400"/>
<stop offset="0.685144" stop-color="#E0A700"/>
<stop offset="1" stop-color="#F1B500"/>
</linearGradient>
</defs>
</svg>
