<svg width="31" height="31" viewBox="0 0 31 31" fill="none" xmlns="http://www.w3.org/2000/svg">
<path fill-rule="evenodd" clip-rule="evenodd" d="M25.6161 0V4.25976L31.0003 7.95509V11.2241H14.9658V7.95817L20.2909 4.26284V0H25.6161ZM12.8276 21.9139H0V14.9656H12.8276V21.9139ZM10.0828 16.8294H2.80551V18.5811H10.0828V16.8294ZM12.8276 31H0V24.0518H12.8276V31ZM10.0828 25.8511H2.80551V27.5738H10.0828V25.8511ZM14.9658 31.0001H31.0003V14.9656H14.9658V31.0001ZM25.6161 16.8613H27.3911V18.6869H25.6161V16.8613ZM22.066 16.8613H23.841V18.6869H22.066V16.8613ZM18.5159 16.8613H20.2909V18.6869H18.5159V16.8613ZM18.5159 20.2807H27.3911V27.4369H18.5159V20.2807Z" fill="url(#paint0_linear_1_1187)"/>
<defs>
<linearGradient id="paint0_linear_1_1187" x1="15.5002" y1="0" x2="15.5002" y2="31.0001" gradientUnits="userSpaceOnUse">
<stop stop-color="#A17316"/>
<stop offset="0.216366" stop-color="#B2800A"/>
<stop offset="0.461172" stop-color="#CA9400"/>
<stop offset="0.685144" stop-color="#E0A700"/>
<stop offset="1" stop-color="#F1B500"/>
</linearGradient>
</defs>
</svg>
