<svg width="24" height="25" viewBox="0 0 24 25" fill="none" xmlns="http://www.w3.org/2000/svg">
<path d="M0.419434 23.6845L2.05772 17.7104C1.04556 15.9639 0.513588 13.9772 0.513588 11.9482C0.518296 5.58803 5.69209 0.418945 12.0475 0.418945C15.1311 0.418945 18.031 1.61942 20.206 3.79909C22.3857 5.97877 23.5862 8.87403 23.5815 11.9576C23.5768 18.313 18.403 23.4868 12.0475 23.4868H12.0428C10.1126 23.4868 8.21543 23.0019 6.53007 22.0839L0.419434 23.6845Z" fill="url(#paint0_linear_1_1491)"/>
<path d="M0 24.1036L1.69478 17.9129C0.649667 16.1051 0.10357 14.0479 0.10357 11.9435C0.10357 5.3574 5.46567 0 12.0518 0C15.2483 0 18.2472 1.24755 20.5022 3.50255C22.7572 5.76226 24 8.76108 24 11.9529C23.9953 18.539 18.6379 23.8964 12.0518 23.8964H12.0471C10.0463 23.8964 8.08317 23.3927 6.3366 22.4417L0 24.1036ZM6.62848 20.2809L6.99098 20.4974C8.51628 21.4013 10.2628 21.8815 12.0471 21.8815H12.0518C17.5269 21.8815 21.9804 17.428 21.9804 11.9529C21.9804 9.30247 20.9494 6.80738 19.0757 4.92899C17.202 3.05061 14.7069 2.01962 12.0565 2.01962C6.5767 2.01962 2.12319 6.47313 2.12319 11.9482C2.12319 13.8219 2.64574 15.6485 3.63907 17.2303L3.87446 17.6069L2.87171 21.2695L6.62848 20.2809Z" fill="url(#paint1_linear_1_1491)"/>
<path fill-rule="evenodd" clip-rule="evenodd" d="M9.06019 6.94866C8.83422 6.44964 8.59884 6.44023 8.38699 6.43081C8.2128 6.4214 8.01508 6.4261 7.81265 6.4261C7.61492 6.4261 7.29009 6.50143 7.01704 6.79801C6.74399 7.0946 5.97192 7.81959 5.97192 9.2884C5.97192 10.7572 7.04058 12.1789 7.19123 12.3767C7.34187 12.5744 9.25792 15.6862 12.2897 16.882C14.813 17.8753 15.3262 17.6776 15.8723 17.6305C16.4184 17.5834 17.6377 16.9102 17.8872 16.2135C18.1367 15.5167 18.1367 14.9188 18.0614 14.7964C17.986 14.674 17.7883 14.5987 17.487 14.4481C17.1904 14.2974 15.7216 13.5771 15.4486 13.4783C15.1755 13.3794 14.9778 13.3276 14.7754 13.6289C14.5777 13.9255 14.0033 14.5987 13.8291 14.7964C13.6549 14.9942 13.4808 15.0224 13.1842 14.8718C12.8876 14.7211 11.9225 14.4057 10.7832 13.3888C9.89346 12.5979 9.29558 11.6187 9.12139 11.3221C8.94721 11.0256 9.10256 10.8608 9.25321 10.7148C9.38503 10.583 9.5498 10.3665 9.70044 10.1923C9.85109 10.0181 9.89817 9.8957 9.99703 9.69327C10.0959 9.49554 10.0488 9.32136 9.97349 9.17071C9.90758 9.01535 9.32853 7.54184 9.06019 6.94866Z" fill="white"/>
<defs>
<linearGradient id="paint0_linear_1_1491" x1="12.0004" y1="23.6865" x2="12.0004" y2="0.417345" gradientUnits="userSpaceOnUse">
<stop stop-color="#20B038"/>
<stop offset="1" stop-color="#60D66A"/>
</linearGradient>
<linearGradient id="paint1_linear_1_1491" x1="12" y1="24.1036" x2="12" y2="0" gradientUnits="userSpaceOnUse">
<stop stop-color="#F9F9F9"/>
<stop offset="1" stop-color="white"/>
</linearGradient>
</defs>
</svg>
