<svg width="21" height="21" viewBox="0 0 21 21" fill="none" xmlns="http://www.w3.org/2000/svg">
<path fill-rule="evenodd" clip-rule="evenodd" d="M3.36039 6.39987C3.36039 4.58838 4.8289 3.11987 6.64039 3.11987H14.8404C16.6519 3.11987 18.1204 4.58838 18.1204 6.39987V14.5999C18.1204 16.4114 16.6519 17.8799 14.8404 17.8799H6.64039C4.8289 17.8799 3.36039 16.4114 3.36039 14.5999V6.39987ZM10.7404 8.85987C9.83464 8.85987 9.10039 9.59413 9.10039 10.4999C9.10039 11.4056 9.83464 12.1399 10.7404 12.1399C11.6461 12.1399 12.3804 11.4056 12.3804 10.4999C12.3804 9.59413 11.6461 8.85987 10.7404 8.85987ZM7.46039 10.4999C7.46039 8.68838 8.9289 7.21987 10.7404 7.21987C12.5519 7.21987 14.0204 8.68838 14.0204 10.4999C14.0204 12.3114 12.5519 13.7799 10.7404 13.7799C8.9289 13.7799 7.46039 12.3114 7.46039 10.4999ZM15.2504 6.80987C15.7033 6.80987 16.0704 6.44275 16.0704 5.98987C16.0704 5.537 15.7033 5.16987 15.2504 5.16987C14.7975 5.16987 14.4304 5.537 14.4304 5.98987C14.4304 6.44275 14.7975 6.80987 15.2504 6.80987Z" fill="white"/>
</svg>
