<svg width="21" height="21" viewBox="0 0 21 21" fill="none" xmlns="http://www.w3.org/2000/svg">
<path fill-rule="evenodd" clip-rule="evenodd" d="M10.8205 18.6999C15.3492 18.6999 19.0205 15.0287 19.0205 10.4999C19.0205 5.97119 15.3492 2.29993 10.8205 2.29993C6.29173 2.29993 2.62047 5.97119 2.62047 10.4999C2.62047 12.3459 3.23046 14.0494 4.25987 15.4199L4.26028 17.692C4.26038 18.212 4.73821 18.6005 5.24729 18.4946L7.54047 18.0176C8.54491 18.4565 9.65426 18.6999 10.8205 18.6999ZM6.47864 11.8997L8.73412 8.67756C8.98431 8.32016 9.47054 8.22122 9.84049 8.45244L12.0115 9.80933C12.2848 9.98014 12.6328 9.97503 12.901 9.79626L14.682 8.60888C14.8207 8.51646 15.0053 8.53474 15.1231 8.65256C15.243 8.77249 15.2596 8.96123 15.1623 9.10018L12.9068 12.3223C12.6566 12.6797 12.1704 12.7786 11.8004 12.5474L9.62942 11.1905C9.35612 11.0197 9.00812 11.0248 8.73996 11.2036L6.9589 12.391C6.82026 12.4834 6.63566 12.4651 6.51784 12.3473C6.3979 12.2274 6.38138 12.0386 6.47864 11.8997Z" fill="white"/>
</svg>
