<svg width="12" height="30" viewBox="0 0 12 30" fill="none" xmlns="http://www.w3.org/2000/svg">
<path d="M0.725195 23.3001C0.925195 23.1001 1.16686 23.0041 1.4502 23.0121C1.73353 23.0208 1.97519 23.1251 2.17519 23.3251L5.00019 26.1501L5.00019 1C5.00019 0.716667 5.0962 0.479 5.2882 0.287C5.47953 0.0956669 5.71686 3.13267e-08 6.0002 4.37116e-08C6.28353 5.60965e-08 6.5212 0.0956669 6.7132 0.287C6.90453 0.479 7.00019 0.716667 7.00019 1L7.00019 26.1501L9.85019 23.3001C10.0502 23.1001 10.2879 23.0001 10.5632 23.0001C10.8379 23.0001 11.0752 23.1001 11.2752 23.3001C11.4752 23.5001 11.5752 23.7378 11.5752 24.0131C11.5752 24.2878 11.4752 24.5251 11.2752 24.7251L6.70019 29.3001C6.60019 29.4001 6.49186 29.4711 6.37519 29.5131C6.25853 29.5544 6.13353 29.5751 6.00019 29.5751C5.86686 29.5751 5.74186 29.5544 5.62519 29.5131C5.50853 29.4711 5.40019 29.4001 5.30019 29.3001L0.700195 24.7001C0.516862 24.5168 0.425194 24.2878 0.425194 24.0131C0.425194 23.7378 0.525195 23.5001 0.725195 23.3001Z" fill="white"/>
</svg>
