<svg width="18" height="17" viewBox="0 0 18 17" fill="none" xmlns="http://www.w3.org/2000/svg">
<path d="M15.8337 4.09245C13.3804 0.299923 8.37172 -0.827585 4.48743 1.52993C0.70535 3.88745 -0.52127 9.01249 1.93197 12.805L2.13641 13.1125L1.31866 16.1875L4.38521 15.3675L4.69186 15.5725C6.0207 16.29 7.45176 16.7 8.88282 16.7C10.4161 16.7 11.9494 16.29 13.2782 15.47C17.0603 13.01 18.1847 7.98748 15.8337 4.09245ZM13.6871 11.985C13.2782 12.6 12.7671 13.01 12.0516 13.1125C11.6427 13.1125 11.1316 13.3175 9.08725 12.4975C7.34954 11.6775 5.91848 10.345 4.8963 8.80749C4.28299 8.08998 3.97634 7.16748 3.87412 6.24497C3.87412 5.42496 4.18077 4.70746 4.69186 4.19495C4.8963 3.98995 5.10074 3.88745 5.30517 3.88745H5.81627C6.0207 3.88745 6.22514 3.88745 6.32736 4.29745C6.53179 4.80996 7.04289 6.03997 7.04289 6.14247C7.1451 6.24497 7.1451 6.44997 7.04289 6.55247C7.1451 6.75747 7.04289 6.96248 6.94067 7.06498C6.83845 7.16748 6.73623 7.37248 6.63401 7.47498C6.42958 7.57748 6.32736 7.78248 6.42958 7.98748C6.83845 8.60249 7.34954 9.21749 7.86063 9.73C8.47394 10.2425 9.08725 10.6525 9.80278 10.96C10.0072 11.0625 10.2117 11.0625 10.3139 10.8575C10.4161 10.6525 10.9272 10.14 11.1316 9.935C11.3361 9.73 11.4383 9.73 11.6427 9.8325L13.2782 10.6525C13.4826 10.755 13.6871 10.8575 13.7893 10.96C13.8915 11.2675 13.8915 11.6775 13.6871 11.985Z" fill="white"/>
</svg>
