<svg width="28" height="28" viewBox="0 0 28 28" fill="none" xmlns="http://www.w3.org/2000/svg">
<circle cx="14" cy="14" r="13.5" stroke="url(#paint0_linear_1_1308)"/>
<path d="M11.3128 19.3577L11.3126 19.3575L9.84901 17.7625C9.84893 17.7624 9.84885 17.7624 9.84877 17.7623C9.73676 17.6396 9.64872 17.4928 9.58912 17.3328C9.64285 17.4581 9.71739 17.5749 9.81115 17.6772L11.248 19.2445L11.4446 19.4589C11.3983 19.4357 11.3537 19.4023 11.3128 19.3577ZM12.0813 11.4251C11.1887 12.3987 10.4876 13.5219 10.0279 14.7034C10.4895 13.4945 11.2013 12.3385 12.1184 11.3362C13.5162 9.81287 15.2291 8.82061 16.9245 8.51612L16.9245 8.51614L16.9282 8.51544C16.9839 8.50501 17.0396 8.5 17.1001 8.5C17.3843 8.5 17.6736 8.62604 17.8893 8.86132L19.3523 10.4571L19.7209 10.1192L19.3523 10.4571C19.3917 10.5001 19.4245 10.5499 19.449 10.6051L19.3662 10.5148L17.9293 8.94745L17.9277 8.94575C17.6736 8.67113 17.2968 8.52489 16.911 8.59531C15.1636 8.91054 13.4544 9.92738 12.0813 11.4251ZM19.3663 11.1904L19.4481 11.1011C19.4236 11.1562 19.3911 11.2058 19.3526 11.2479C19.3525 11.248 19.3524 11.2481 19.3523 11.2482L17.7743 12.965L17.7742 12.965L17.7716 12.9679C17.7349 13.0085 17.6939 13.04 17.6513 13.0627L17.8428 12.8537L19.3663 11.1904ZM17.1053 12.8535L17.3002 13.0664C17.2541 13.0432 17.2097 13.0099 17.1689 12.9655L15.9371 11.6203L15.6882 11.3485L15.3549 11.5059C14.6405 11.8431 13.9981 12.3189 13.4506 12.9191C12.9039 13.5136 12.4685 14.2144 12.1661 14.983L12.1611 14.9957C12.4712 14.1854 12.9228 13.4505 13.4895 12.8322C14.113 12.1518 14.8607 11.629 15.68 11.2962L17.1053 12.8535ZM12.0478 15.3133L12.0587 15.2811L12.2626 15.5038L13.4946 16.8491L13.4948 16.8493C13.5335 16.8915 13.5657 16.9402 13.5901 16.9942L13.5085 16.9053L12.0478 15.3133ZM13.5088 17.5811L13.5918 17.4904C13.5671 17.5467 13.5342 17.5974 13.4949 17.6403C13.4948 17.6403 13.4948 17.6403 13.4948 17.6404L11.918 19.3573L11.9164 19.3591C11.8774 19.4019 11.8347 19.4344 11.7902 19.4573L11.9853 19.2444L13.5088 17.5811Z" fill="url(#paint1_linear_1_1308)" stroke="url(#paint2_linear_1_1308)"/>
<defs>
<linearGradient id="paint0_linear_1_1308" x1="14" y1="0" x2="14" y2="28" gradientUnits="userSpaceOnUse">
<stop stop-color="#A17316"/>
<stop offset="0.216366" stop-color="#B2800A"/>
<stop offset="0.461172" stop-color="#CA9400"/>
<stop offset="0.685144" stop-color="#E0A700"/>
<stop offset="1" stop-color="#F1B500"/>
</linearGradient>
<linearGradient id="paint1_linear_1_1308" x1="20" y1="14.0033" x2="8.76765" y2="14.0034" gradientUnits="userSpaceOnUse">
<stop stop-color="#E4494D"/>
<stop offset="0.484375" stop-color="#5D3E91"/>
<stop offset="1" stop-color="#00367F"/>
</linearGradient>
<linearGradient id="paint2_linear_1_1308" x1="14.5" y1="20" x2="14.5" y2="8" gradientUnits="userSpaceOnUse">
<stop stop-color="#A17316"/>
<stop offset="0.216366" stop-color="#B2800A"/>
<stop offset="0.461172" stop-color="#CA9400"/>
<stop offset="0.685144" stop-color="#E0A700"/>
<stop offset="1" stop-color="#F1B500"/>
</linearGradient>
</defs>
</svg>
