<svg width="16" height="17" viewBox="0 0 16 17" fill="none" xmlns="http://www.w3.org/2000/svg">
<path d="M15.5248 13.7742C15.5248 14.5502 15.2013 15.2944 14.6254 15.8431C14.0495 16.3918 13.2684 16.7 12.454 16.7C11.6396 16.7 10.8585 16.3918 10.2826 15.8431C9.70677 15.2944 9.38324 14.5502 9.38324 13.7742C9.38447 13.4116 9.4547 13.0522 9.59051 12.7135L6.05143 10.5484C5.62534 10.9655 5.07838 11.252 4.48048 11.3713C3.88258 11.4906 3.26092 11.4373 2.69498 11.2182C2.12904 10.9991 1.64455 10.6242 1.30345 10.1413C0.962355 9.65845 0.780159 9.08963 0.780159 8.50758C0.780159 7.92553 0.962355 7.35671 1.30345 6.87385C1.64455 6.39099 2.12904 6.01603 2.69498 5.79692C3.26092 5.57782 3.88258 5.52452 4.48048 5.64384C5.07838 5.76317 5.62534 6.04969 6.05143 6.46678L9.59051 4.30163C9.4547 3.96293 9.38447 3.60357 9.38324 3.24099C9.38135 2.56051 9.62784 1.90058 10.0805 1.37422C10.5331 0.847862 11.1638 0.487833 11.8644 0.355798C12.565 0.223763 13.292 0.327937 13.9208 0.650477C14.5497 0.973018 15.0413 1.49385 15.3114 2.12378C15.5816 2.75371 15.6134 3.45353 15.4016 4.10338C15.1897 4.75324 14.7473 5.31268 14.1501 5.68591C13.5529 6.05913 12.8382 6.22291 12.1282 6.14918C11.4182 6.07546 10.7572 5.76882 10.2584 5.2818L6.71933 7.44695C6.99559 8.12954 6.99559 8.88562 6.71933 9.56821L10.2584 11.7334C10.6848 11.3179 11.2313 11.0328 11.8284 10.9144C12.4255 10.796 13.046 10.8497 13.6109 11.0686C14.1758 11.2875 14.6596 11.6618 15.0004 12.1436C15.3413 12.6255 15.5238 13.1931 15.5248 13.7742Z" fill="white"/>
</svg>
