<svg width="18" height="18" viewBox="0 0 18 18" fill="none" xmlns="http://www.w3.org/2000/svg">
<mask id="mask0_1_675" style="mask-type:luminance" maskUnits="userSpaceOnUse" x="0" y="0" width="18" height="18">
<path d="M4.33789 3.60837V2.4683C4.33789 2.1584 4.461 1.86119 4.68014 1.64205C4.89927 1.42291 5.19649 1.2998 5.50639 1.2998H15.6334C15.9433 1.2998 16.2405 1.42291 16.4596 1.64205C16.6788 1.86119 16.8019 2.1584 16.8019 2.4683V12.5953C16.8019 12.9052 16.6788 13.2024 16.4596 13.4216C16.2405 13.6407 15.9433 13.7638 15.6334 13.7638H14.4715" stroke="white"/>
<path d="M13.2962 3.63672H2.39018C1.74483 3.63672 1.22168 4.15987 1.22168 4.80522V15.7112C1.22168 16.3566 1.74483 16.8797 2.39018 16.8797H13.2962C13.9415 16.8797 14.4647 16.3566 14.4647 15.7112V4.80522C14.4647 4.15987 13.9415 3.63672 13.2962 3.63672Z" fill="white" stroke="white" stroke-linejoin="round"/>
<path d="M6.84603 8.74302L8.90727 6.59688C9.47243 6.03172 10.4018 6.04379 10.9825 6.62492C11.5633 7.20567 11.5757 8.13501 11.0106 8.70018L10.2666 9.48814M4.90866 10.9386C4.71001 11.1373 4.29909 11.5346 4.29909 11.5346C3.73354 12.0997 3.71796 13.1074 4.29909 13.6885C4.87945 14.2689 5.80879 14.2817 6.37435 13.7162L8.38573 11.8902" stroke="black" stroke-linecap="round" stroke-linejoin="round"/>
<path d="M6.93353 10.7757C6.6748 10.5186 6.51825 10.1763 6.49301 9.81246C6.47809 9.60834 6.50724 9.4034 6.57847 9.21154C6.64971 9.01967 6.76137 8.84537 6.90588 8.70044M8.35833 9.8148C8.93907 10.3955 8.95153 11.3249 8.38637 11.8904" stroke="black" stroke-linecap="round" stroke-linejoin="round"/>
</mask>
<g mask="url(#mask0_1_675)">
<path d="M-0.337891 -0.258301H18.3581V18.4377H-0.337891V-0.258301Z" fill="white"/>
</g>
</svg>
