<svg width="24" height="24" viewBox="0 0 24 24" fill="none" xmlns="http://www.w3.org/2000/svg">
<path d="M3 7.00012C3 4.79098 4.79086 3.00012 7 3.00012H17C19.2091 3.00012 21 4.79098 21 7.00012V17.0001C21 19.2093 19.2091 21.0001 17 21.0001H7C4.79086 21.0001 3 19.2093 3 17.0001V7.00012Z" fill="url(#paint0_linear_1_171)"/>
<path fill-rule="evenodd" clip-rule="evenodd" d="M17.5 7.50012C18.0523 7.50012 18.5 7.05241 18.5 6.50012C18.5 5.94784 18.0523 5.50012 17.5 5.50012C16.9477 5.50012 16.5 5.94784 16.5 6.50012C16.5 7.05241 16.9477 7.50012 17.5 7.50012ZM10 12.0001C10 10.8956 10.8954 10.0001 12 10.0001C13.1046 10.0001 14 10.8956 14 12.0001C14 13.1047 13.1046 14.0001 12 14.0001C10.8954 14.0001 10 13.1047 10 12.0001ZM12 8.00012C9.79086 8.00012 8 9.79098 8 12.0001C8 14.2093 9.79086 16.0001 12 16.0001C14.2091 16.0001 16 14.2093 16 12.0001C16 9.79098 14.2091 8.00012 12 8.00012Z" fill="#101010"/>
<defs>
<linearGradient id="paint0_linear_1_171" x1="12" y1="3.00012" x2="12" y2="21.0001" gradientUnits="userSpaceOnUse">
<stop stop-color="#A17316"/>
<stop offset="0.216366" stop-color="#B2800A"/>
<stop offset="0.461172" stop-color="#CA9400"/>
<stop offset="0.685144" stop-color="#E0A700"/>
<stop offset="1" stop-color="#F1B500"/>
</linearGradient>
</defs>
</svg>
