<svg width="21" height="21" viewBox="0 0 21 21" fill="none" xmlns="http://www.w3.org/2000/svg">
<path fill-rule="evenodd" clip-rule="evenodd" d="M17.3395 7.22138C17.3395 7.2209 17.3395 7.22042 17.3395 7.21994C17.3395 7.21989 17.3395 7.21984 17.3395 7.2198L18.877 5.56085C19.1276 5.29044 18.9022 4.85476 18.5367 4.9031L16.6103 5.15787C16.009 4.41493 15.0897 3.93994 14.0595 3.93994C12.248 3.93994 10.7795 5.40845 10.7795 7.21994C10.7795 7.65244 10.8632 8.0654 11.0153 8.44348C8.55823 8.38602 5.92744 7.89983 4.59736 5.26457C4.43277 4.93848 3.96095 4.91959 3.85617 5.26951C2.89371 8.48392 4.58751 12.6604 8.31928 13.7799C7.38834 14.6902 4.99528 14.9373 3.03694 14.758C2.65586 14.7231 2.41662 15.1572 2.71132 15.4013C4.35339 16.7616 6.63084 17.0599 8.72934 17.0599C14.0588 17.0599 17.7486 12.5507 17.3395 7.22138Z" fill="white"/>
</svg>
